<svg xmlns="http://www.w3.org/2000/svg" version="1.1" xmlns:xlink="http://www.w3.org/1999/xlink" xmlns:svgjs="http://svgjs.dev/svgjs" width="345" height="281" viewBox="0 0 120 120" style="background-color: rgb(255, 255, 255);"><svg viewBox="0 0 118 138.98599243164062" width="100" height="100" style="fill: rgb(0, 0, 0);" x="10" y="10"><svg width="118" height="134" viewBox="0 0 118 134" xmlns="http://www.w3.org/2000/svg">
	<path d="M94.1907 53.7204L80.6563 90.9538C79.9454 92.9226 78.0675 94.2486 75.9615 94.2486L23.2056 94.3021C21.0996 94.3021 19.2351 95.6147 18.5108 97.5835L7.67256 127.29C6.50557 130.491 8.81272 133.973 12.2198 133.986C12.2466 133.986 12.26 133.986 12.2869 133.986H62.9368V133.946C63.5271 133.96 64.1038 133.986 64.7075 133.986C94.137 133.986 118 112.437 118 85.851C118 72.4711 111.964 60.3769 102.212 51.6579C99.583 49.3274 95.3979 50.4123 94.1907 53.7204Z"></path>
	<path d="M43.192 40.4478L94.5529 40.3942C96.6589 40.3942 98.5234 39.0817 99.2477 37.1128L110.327 6.69665C111.494 3.49565 109.187 0.0133933 105.78 0C105.753 0 105.74 0 105.713 0H55.0631V0.0401799C54.4729 0.0267866 53.8827 0 53.2925 0C23.8629 0 0 21.5498 0 48.1355C0 62.0244 6.51904 74.5337 16.9549 83.3197C19.6108 85.5564 23.7019 84.4716 24.8958 81.2036L38.4972 43.7425C39.2081 41.7737 41.0861 40.4612 43.192 40.4478Z"></path>
	</svg></svg><text fill="#000000" font-family="Rajdhani" font-size="40px" x="60" y="110"><tspan dy="0" x="60"></tspan></text><text fill="#000000" font-family="Verdana" font-size="16px" x="60" y="110"><tspan dy="0" x="60"></tspan></text></svg>